<?xml version="1.0" encoding="utf-8"?>
<!-- Generator: Adobe Illustrator 24.1.0, SVG Export Plug-In . SVG Version: 6.00 Build 0)  -->
<svg version="1.1" id="Layer_1" xmlns="http://www.w3.org/2000/svg" xmlns:xlink="http://www.w3.org/1999/xlink" x="0px" y="0px"
	 viewBox="0 0 990 384" style="enable-background:new 0 0 990 384;" xml:space="preserve">
<style type="text/css">
	.st0{fill:#FFFFFF;}
	.st1{fill:#4D4D4D;}
	.st2{fill:#333333;}
	.st3{font-family:'MyriadPro-Regular';}
	.st4{font-size:24px;}
	.st5{fill:#666666;}
	.st6{font-size:35px;}
	.st7{font-size:20px;}
	.st8{font-size:28px;}
</style>
<g>
	<path class="st0" d="M63.17,302C52.6,302,44,293.4,44,282.83V120.17C44,109.6,52.6,101,63.17,101h492.66
		c10.57,0,19.17,8.6,19.17,19.17v162.66c0,10.57-8.6,19.17-19.17,19.17H63.17z"/>
	<path class="st1" d="M555.83,102c10.02,0,18.17,8.15,18.17,18.17v162.66c0,10.02-8.15,18.17-18.17,18.17H63.17
		C53.15,301,45,292.85,45,282.83V120.17C45,110.15,53.15,102,63.17,102H555.83 M555.83,100H63.17C52.03,100,43,109.03,43,120.17
		v162.66C43,293.97,52.03,303,63.17,303h492.66c11.14,0,20.17-9.03,20.17-20.17V120.17C576,109.03,566.97,100,555.83,100L555.83,100
		z"/>
</g>
<g>
	<path class="st0" d="M701.12,302c-11.09,0-20.12-9.02-20.12-20.12V121.12c0-11.09,9.02-20.12,20.12-20.12h233.77
		c11.09,0,20.12,9.02,20.12,20.12v160.77c0,11.09-9.02,20.12-20.12,20.12H701.12z"/>
	<path class="st1" d="M934.88,102c10.54,0,19.12,8.58,19.12,19.12v160.77c0,10.54-8.58,19.12-19.12,19.12H701.12
		c-10.54,0-19.12-8.58-19.12-19.12V121.12c0-10.54,8.58-19.12,19.12-19.12H934.88 M934.88,100H701.12
		c-11.66,0-21.12,9.45-21.12,21.12v160.77c0,11.66,9.45,21.12,21.12,21.12h233.77c11.66,0,21.12-9.45,21.12-21.12V121.12
		C956,109.45,946.55,100,934.88,100L934.88,100z"/>
</g>
<text transform="matrix(1 0 0 1 77 141)" class="st2 st3 st4">AWS EC2</text>
<text transform="matrix(1 0 0 1 719 138)" class="st2 st3 st4">AWS RDS</text>
<path class="st5" d="M248.04,164.67H131.96c-11.03,0-19.96,8.94-19.96,19.96v68.4c0,11.03,8.94,19.96,19.96,19.96h116.07
	c11.03,0,19.96-8.94,19.96-19.96v-68.4C268,173.61,259.06,164.67,248.04,164.67z"/>
<text transform="matrix(1 0 0 1 43 64)" class="st2 st3 st6">ANGULAR / PHP PORTFOLIO</text>
<path class="st5" d="M489.04,272.67H372.96c-11.03,0-19.96-8.94-19.96-19.96v-68.4c0-11.03,8.94-19.96,19.96-19.96h116.07
	c11.03,0,19.96,8.94,19.96,19.96v68.4C509,263.73,500.06,272.67,489.04,272.67z"/>
<path class="st5" d="M880.19,272.67H764.12c-11.03,0-19.96-8.94-19.96-19.96v-68.4c0-11.03,8.94-19.96,19.96-19.96h116.07
	c11.03,0,19.96,8.94,19.96,19.96v68.4C900.16,263.73,891.22,272.67,880.19,272.67z"/>
<text transform="matrix(1 0 0 1 43 348)" class="st2 st3 st7">Home Cook Application that allow user to add their home cook menu to the system and manage their account</text>
<text transform="matrix(1 0 0 1 134.5469 224)" class="st0 st3 st8">Angularjs</text>
<text transform="matrix(1 0 0 1 407.4443 223.5439)" class="st0 st3 st8">PHP</text>
<text transform="matrix(1 0 0 1 781.1505 223.5439)" class="st0 st3 st8">MySQL</text>
<path class="st5" d="M337.23,219.02l-20.33,8.44c0,0-2.41,1.28-2.41-0.11c0-1.39,0-4.76,0-4.76s-1.63,0-4.13,0
	c-7.16,0-20.16,0-25.47,0c0,0-1.44,0.19-1.44-0.91c0-1.1,0-5.91,0-6.69c0-0.78,1.21-0.76,1.21-0.76c5.15,0,18.61,0,25.52,0
	c2.24,0,3.7,0,3.7,0s0-2.7,0-4.39c0-1.69,2.52-0.41,2.52-0.41s19,7.18,20.99,8.18C338.85,218.33,337.23,219.02,337.23,219.02z"/>
<g>
	<path class="st5" d="M716.81,215.08l-20.33,8.44c0,0-2.41,1.28-2.41-0.11c0-1.39,0-4.76,0-4.76s-1.63,0-4.13,0
		c-7.16,0-20.16,0-25.47,0c0,0-1.44,0.19-1.44-0.91c0-1.1,0-5.91,0-6.69c0-0.78,1.21-0.76,1.21-0.76c5.15,0,18.61,0,25.52,0
		c2.24,0,3.7,0,3.7,0s0-2.7,0-4.39c0-1.69,2.52-0.41,2.52-0.41s19,7.18,20.99,8.18C718.43,214.39,716.81,215.08,716.81,215.08z"/>
	<rect x="552.04" y="210.22" class="st5" width="129" height="8.4"/>
</g>
</svg>
